<svg width="26" height="24" viewBox="0 0 26 24" fill="none" xmlns="http://www.w3.org/2000/svg">
<g clip-path="url(#clip0_721_25558)">
<path d="M16.3259 11.4016L6.04688 9.60156V22.9018C6.04688 23.5092 6.54309 24.0016 7.1552 24.0016H24.892C25.5042 24.0016 26.0004 23.5092 26.0004 22.9018V18.0016L16.3259 11.4016Z" fill="#185C37"/>
<path d="M16.3259 0H7.1552C6.54309 0 6.04688 0.492394 6.04688 1.0998V6L16.3259 12L21.7678 13.8L26.0004 12V6L16.3259 0Z" fill="#21A366"/>
<path d="M6.04688 6H16.3259V12H6.04688V6Z" fill="#107C41"/>
<path opacity="0.1" d="M13.4037 4.80078H6.04688V19.8008H13.4037C14.015 19.7988 14.51 19.3076 14.512 18.701V5.90058C14.51 5.294 14.015 4.80275 13.4037 4.80078Z" fill="black"/>
<path opacity="0.2" d="M12.799 5.40234H6.04688V20.4023H12.799C13.4103 20.4004 13.9054 19.9091 13.9073 19.3025V6.50214C13.9054 5.89556 13.4103 5.40432 12.799 5.40234Z" fill="black"/>
<path opacity="0.2" d="M12.799 5.40234H6.04688V19.2023H12.799C13.4103 19.2004 13.9054 18.7091 13.9073 18.1025V6.50214C13.9054 5.89556 13.4103 5.40432 12.799 5.40234Z" fill="black"/>
<path opacity="0.2" d="M12.1944 5.40234H6.04688V19.2023H12.1944C12.8056 19.2004 13.3007 18.7091 13.3027 18.1025V6.50214C13.3007 5.89556 12.8056 5.40432 12.1944 5.40234Z" fill="black"/>
<path d="M1.10832 5.40234H12.194C12.8061 5.40234 13.3023 5.89474 13.3023 6.50214V17.5025C13.3023 18.1099 12.8061 18.6023 12.194 18.6023H1.10832C0.496211 18.6023 0 18.1099 0 17.5025V6.50214C0 5.89474 0.496211 5.40234 1.10832 5.40234Z" fill="url(#paint0_linear_721_25558)"/>
<path d="M3.43164 15.576L5.76318 11.991L3.62695 8.42578H5.34536L6.51113 10.7058C6.61876 10.9224 6.69252 11.0832 6.73243 11.1894H6.74755C6.82414 11.0166 6.90476 10.8488 6.98941 10.686L8.23559 8.42699H9.81312L7.62247 11.9712L9.86876 15.576H8.19025L6.84369 13.0734C6.78026 12.9669 6.72644 12.8551 6.68286 12.7392H6.66291C6.62346 12.8527 6.57113 12.9614 6.5069 13.0632L5.12044 15.576H3.43164Z" fill="white"/>
<path d="M24.8903 0H16.3242V6H25.9986V1.0998C25.9986 0.492394 25.5024 0 24.8903 0Z" fill="#33C481"/>
<path d="M16.3242 12H25.9986V18H16.3242V12Z" fill="#107C41"/>
</g>
<defs>
<linearGradient id="paint0_linear_721_25558" x1="2.31088" y1="4.54298" x2="10.8913" y2="19.5191" gradientUnits="userSpaceOnUse">
<stop stop-color="#18884F"/>
<stop offset="0.5" stop-color="#117E43"/>
<stop offset="1" stop-color="#0B6631"/>
</linearGradient>
<clipPath id="clip0_721_25558">
<rect width="26" height="24" fill="white"/>
</clipPath>
</defs>
</svg>
