<svg width="56" height="56" viewBox="0 0 56 56" fill="none" xmlns="http://www.w3.org/2000/svg">
<path d="M15.166 25.6665C16.4888 27.1373 18.0976 27.9998 19.8327 27.9998C21.5678 27.9998 23.1765 27.1373 24.4993 25.6665" stroke="#252525" stroke-width="1.5" stroke-linecap="round"/>
<path d="M31.5 25.6665C32.8228 27.1373 34.4315 27.9998 36.1667 27.9998C37.9018 27.9998 39.5105 27.1373 40.8333 25.6665" stroke="#252525" stroke-width="1.5" stroke-linecap="round"/>
<path d="M30.3327 37.3333C30.3327 38.622 29.288 39.6667 27.9993 39.6667C26.7107 39.6667 25.666 38.622 25.666 37.3333C25.666 36.0447 26.7107 35 27.9993 35C29.288 35 30.3327 36.0447 30.3327 37.3333Z" fill="#252525"/>
<path d="M51.3327 27.9998C51.3327 38.9993 51.3327 44.499 47.9156 47.9161C44.4985 51.3332 38.9988 51.3332 27.9993 51.3332C16.9999 51.3332 11.5002 51.3332 8.0831 47.9161C4.66602 44.499 4.66602 38.9993 4.66602 27.9998C4.66602 17.0004 4.66602 11.5007 8.0831 8.08359C11.5002 4.6665 16.9999 4.6665 27.9993 4.6665" stroke="#252525" stroke-width="1.5" stroke-linecap="round"/>
<path d="M39.666 9.3335L47.7489 4.66683L44.3327 17.4164L52.4156 12.7497" stroke="#252525" stroke-width="1.5" stroke-linecap="round" stroke-linejoin="round"/>
<path d="M32.7793 12.833L36.8207 15.1663L30.446 16.8745L34.4874 19.2078" stroke="#252525" stroke-width="1.5" stroke-linecap="round" stroke-linejoin="round"/>
</svg>
