<svg width="56" height="56" viewBox="0 0 56 56" fill="none" xmlns="http://www.w3.org/2000/svg">
<path d="M26.284 2.096C27.1713 1.01219 28.8287 1.01219 29.716 2.096L32.6433 5.67144C33.2464 6.40808 34.2524 6.67763 35.143 6.34123L39.4659 4.70846C40.7762 4.21352 42.2116 5.04223 42.4381 6.4245L43.1855 10.9846C43.3395 11.9241 44.0759 12.6605 45.0154 12.8145L49.5755 13.5619C50.9578 13.7884 51.7865 15.2238 51.2915 16.5341L49.6588 20.857C49.3224 21.7476 49.5919 22.7536 50.3286 23.3567L53.904 26.284C54.9878 27.1713 54.9878 28.8287 53.904 29.716L50.3286 32.6433C49.5919 33.2464 49.3224 34.2524 49.6588 35.143L51.2915 39.4659C51.7865 40.7762 50.9578 42.2116 49.5755 42.4381L45.0154 43.1855C44.0759 43.3395 43.3395 44.0759 43.1855 45.0154L42.4381 49.5755C42.2116 50.9578 40.7762 51.7865 39.4659 51.2915L35.143 49.6588C34.2524 49.3224 33.2464 49.5919 32.6433 50.3286L29.716 53.904C28.8287 54.9878 27.1713 54.9878 26.284 53.904L23.3567 50.3286C22.7536 49.5919 21.7476 49.3224 20.857 49.6588L16.5341 51.2915C15.2238 51.7865 13.7884 50.9578 13.5619 49.5755L12.8145 45.0154C12.6605 44.0759 11.9241 43.3395 10.9846 43.1855L6.4245 42.4381C5.04223 42.2116 4.21352 40.7762 4.70846 39.4659L6.34123 35.143C6.67763 34.2524 6.40808 33.2464 5.67144 32.6433L2.096 29.716C1.01219 28.8287 1.01219 27.1713 2.096 26.284L5.67144 23.3567C6.40808 22.7536 6.67763 21.7476 6.34123 20.857L4.70846 16.5341C4.21352 15.2238 5.04223 13.7884 6.4245 13.5619L10.9846 12.8145C11.9241 12.6605 12.6605 11.9241 12.8145 10.9846L13.5619 6.4245C13.7884 5.04223 15.2238 4.21352 16.5341 4.70846L20.857 6.34123C21.7476 6.67763 22.7536 6.40808 23.3567 5.67144L26.284 2.096Z" fill="#E16349"/>
<path d="M16.8887 21.3335L24.5698 25.6857C27.4016 27.2902 28.598 27.2902 31.4298 25.6857L39.1109 21.3335" stroke="white" stroke-linejoin="round"/>
<path d="M16.9062 29.6397C16.9788 33.0458 17.0151 34.7489 18.272 36.0105C19.5288 37.2721 21.2779 37.316 24.7763 37.4039C26.9324 37.4581 29.0672 37.4581 31.2233 37.4039C34.7216 37.316 36.4708 37.2721 37.7276 36.0105C38.9844 34.7489 39.0207 33.0458 39.0934 29.6397C39.1167 28.5445 39.1167 27.4557 39.0934 26.3605C39.0207 22.9544 38.9844 21.2513 37.7276 19.9897C36.4708 18.7281 34.7216 18.6842 31.2233 18.5963C29.0672 18.5421 26.9323 18.5421 24.7763 18.5963C21.2779 18.6842 19.5288 18.7281 18.272 19.9897C17.0151 21.2513 16.9788 22.9544 16.9062 26.3605C16.8828 27.4557 16.8828 28.5445 16.9062 29.6397Z" stroke="white" stroke-linejoin="round"/>
</svg>
