<svg width="56" height="56" viewBox="0 0 56 56" fill="none" xmlns="http://www.w3.org/2000/svg">
<path d="M26.284 2.096C27.1713 1.01219 28.8287 1.01219 29.716 2.096L32.6433 5.67144C33.2464 6.40808 34.2524 6.67763 35.143 6.34123L39.4659 4.70846C40.7762 4.21352 42.2116 5.04223 42.4381 6.4245L43.1855 10.9846C43.3395 11.9241 44.0759 12.6605 45.0154 12.8145L49.5755 13.5619C50.9578 13.7884 51.7865 15.2238 51.2915 16.5341L49.6588 20.857C49.3224 21.7476 49.5919 22.7536 50.3286 23.3567L53.904 26.284C54.9878 27.1713 54.9878 28.8287 53.904 29.716L50.3286 32.6433C49.5919 33.2464 49.3224 34.2524 49.6588 35.143L51.2915 39.4659C51.7865 40.7762 50.9578 42.2116 49.5755 42.4381L45.0154 43.1855C44.0759 43.3395 43.3395 44.0759 43.1855 45.0154L42.4381 49.5755C42.2116 50.9578 40.7762 51.7865 39.4659 51.2915L35.143 49.6588C34.2524 49.3224 33.2464 49.5919 32.6433 50.3286L29.716 53.904C28.8287 54.9878 27.1713 54.9878 26.284 53.904L23.3567 50.3286C22.7536 49.5919 21.7476 49.3224 20.857 49.6588L16.5341 51.2915C15.2238 51.7865 13.7884 50.9578 13.5619 49.5755L12.8145 45.0154C12.6605 44.0759 11.9241 43.3395 10.9846 43.1855L6.4245 42.4381C5.04223 42.2116 4.21352 40.7762 4.70846 39.4659L6.34123 35.143C6.67763 34.2524 6.40808 33.2464 5.67144 32.6433L2.096 29.716C1.01219 28.8287 1.01219 27.1713 2.096 26.284L5.67144 23.3567C6.40808 22.7536 6.67763 21.7476 6.34123 20.857L4.70846 16.5341C4.21352 15.2238 5.04223 13.7884 6.4245 13.5619L10.9846 12.8145C11.9241 12.6605 12.6605 11.9241 12.8145 10.9846L13.5619 6.4245C13.7884 5.04223 15.2238 4.21352 16.5341 4.70846L20.857 6.34123C21.7476 6.67763 22.7536 6.40808 23.3567 5.67144L26.284 2.096Z" fill="#E16349"/>
<path d="M19.1094 25.7778C19.1094 21.5875 19.1094 19.4924 20.4111 18.1907C21.7129 16.8889 23.808 16.8889 27.9983 16.8889C32.1885 16.8889 34.2837 16.8889 35.5854 18.1907C36.8872 19.4924 36.8872 21.5875 36.8872 25.7778V30.2222C36.8872 34.4125 36.8872 36.5076 35.5854 37.8094C34.2837 39.1111 32.1885 39.1111 27.9983 39.1111C23.808 39.1111 21.7129 39.1111 20.4111 37.8094C19.1094 36.5076 19.1094 34.4125 19.1094 30.2222V25.7778Z" stroke="white"/>
<path d="M31.3327 35.7778H24.666" stroke="white" stroke-linecap="round"/>
</svg>
